<svg width="251" height="340" viewBox="0 0 251 340" fill="none" xmlns="http://www.w3.org/2000/svg">
<rect x="0.187622" width="250" height="340" rx="20" fill="#F4F4F5"/>
<path d="M149.788 138.053V127.28C149.788 123.04 148.08 121.333 143.837 121.333H133.055C128.811 121.333 127.103 123.04 127.103 127.28V138.053C127.103 142.293 128.811 144 133.055 144H143.837C148.08 144 149.788 142.293 149.788 138.053Z" stroke="#999999" stroke-width="3" stroke-linecap="round" stroke-linejoin="round"/>
<path d="M119.097 138.72V126.613C119.097 122.853 117.389 121.333 113.145 121.333H102.363C98.1196 121.333 96.4115 122.853 96.4115 126.613V138.693C96.4115 142.48 98.1196 143.973 102.363 143.973H113.145C117.389 144 119.097 142.48 119.097 138.72Z" stroke="#999999" stroke-width="3" stroke-linecap="round" stroke-linejoin="round"/>
<path d="M119.097 168.72V157.947C119.097 153.707 117.389 152 113.145 152H102.363C98.1196 152 96.4115 153.707 96.4115 157.947V168.72C96.4115 172.96 98.1196 174.667 102.363 174.667H113.145C117.389 174.667 119.097 172.96 119.097 168.72Z" stroke="#999999" stroke-width="3" stroke-linecap="round" stroke-linejoin="round"/>
<path d="M129.772 162.667H145.785" stroke="#999999" stroke-width="3" stroke-linecap="round"/>
<path d="M137.778 170.667V154.667" stroke="#999999" stroke-width="3" stroke-linecap="round"/>
<rect x="15.0121" y="238" width="220.179" height="82" rx="6" fill="white" fill-opacity="0.9"/>
<path d="M114.392 254.644L108.76 270H105.02L99.3883 254.644H102.688L106.912 266.854L111.114 254.644H114.392ZM117.801 256.36C117.258 256.36 116.804 256.191 116.437 255.854C116.085 255.502 115.909 255.069 115.909 254.556C115.909 254.043 116.085 253.617 116.437 253.28C116.804 252.928 117.258 252.752 117.801 252.752C118.344 252.752 118.791 252.928 119.143 253.28C119.51 253.617 119.693 254.043 119.693 254.556C119.693 255.069 119.51 255.502 119.143 255.854C118.791 256.191 118.344 256.36 117.801 256.36ZM119.319 257.812V270H116.239V257.812H119.319ZM133.692 263.642C133.692 264.082 133.663 264.478 133.604 264.83H124.694C124.767 265.71 125.075 266.399 125.618 266.898C126.161 267.397 126.828 267.646 127.62 267.646C128.764 267.646 129.578 267.155 130.062 266.172H133.384C133.032 267.345 132.357 268.313 131.36 269.076C130.363 269.824 129.138 270.198 127.686 270.198C126.513 270.198 125.457 269.941 124.518 269.428C123.594 268.9 122.868 268.159 122.34 267.206C121.827 266.253 121.57 265.153 121.57 263.906C121.57 262.645 121.827 261.537 122.34 260.584C122.853 259.631 123.572 258.897 124.496 258.384C125.42 257.871 126.483 257.614 127.686 257.614C128.845 257.614 129.879 257.863 130.788 258.362C131.712 258.861 132.423 259.572 132.922 260.496C133.435 261.405 133.692 262.454 133.692 263.642ZM130.502 262.762C130.487 261.97 130.201 261.339 129.644 260.87C129.087 260.386 128.405 260.144 127.598 260.144C126.835 260.144 126.19 260.379 125.662 260.848C125.149 261.303 124.833 261.941 124.716 262.762H130.502ZM152.836 257.812L149.272 270H145.95L143.728 261.486L141.506 270H138.162L134.576 257.812H137.7L139.856 267.096L142.188 257.812H145.444L147.732 267.074L149.888 257.812H152.836Z" fill="black"/>
<path d="M81.8156 299.59H75.1276L73.8956 303H71.7836L77.3276 287.754H79.6376L85.1596 303H83.0476L81.8156 299.59ZM81.2436 297.962L78.4716 290.218L75.6996 297.962H81.2436ZM89.5778 286.72V303H87.5758V286.72H89.5778ZM94.9919 286.72V303H92.9899V286.72H94.9919ZM111.947 295.102C112.505 295.19 113.011 295.417 113.465 295.784C113.935 296.151 114.301 296.605 114.565 297.148C114.844 297.691 114.983 298.27 114.983 298.886C114.983 299.663 114.785 300.367 114.389 300.998C113.993 301.614 113.414 302.105 112.651 302.472C111.903 302.824 111.016 303 109.989 303H104.269V287.666H109.769C110.811 287.666 111.698 287.842 112.431 288.194C113.165 288.531 113.715 288.993 114.081 289.58C114.448 290.167 114.631 290.827 114.631 291.56C114.631 292.469 114.382 293.225 113.883 293.826C113.399 294.413 112.754 294.838 111.947 295.102ZM106.271 294.288H109.637C110.576 294.288 111.302 294.068 111.815 293.628C112.329 293.188 112.585 292.579 112.585 291.802C112.585 291.025 112.329 290.416 111.815 289.976C111.302 289.536 110.561 289.316 109.593 289.316H106.271V294.288ZM109.813 301.35C110.811 301.35 111.588 301.115 112.145 300.646C112.703 300.177 112.981 299.524 112.981 298.688C112.981 297.837 112.688 297.17 112.101 296.686C111.515 296.187 110.73 295.938 109.747 295.938H106.271V301.35H109.813ZM119.763 292.902C120.115 292.213 120.614 291.677 121.259 291.296C121.919 290.915 122.719 290.724 123.657 290.724V292.792H123.129C120.885 292.792 119.763 294.009 119.763 296.444V303H117.761V290.944H119.763V292.902ZM125.22 296.928C125.22 295.696 125.47 294.618 125.968 293.694C126.467 292.755 127.149 292.029 128.014 291.516C128.894 291.003 129.87 290.746 130.94 290.746C131.996 290.746 132.913 290.973 133.69 291.428C134.468 291.883 135.047 292.455 135.428 293.144V290.944H137.452V303H135.428V300.756C135.032 301.46 134.438 302.047 133.646 302.516C132.869 302.971 131.96 303.198 130.918 303.198C129.848 303.198 128.88 302.934 128.014 302.406C127.149 301.878 126.467 301.137 125.968 300.184C125.47 299.231 125.22 298.145 125.22 296.928ZM135.428 296.95C135.428 296.041 135.245 295.249 134.878 294.574C134.512 293.899 134.013 293.386 133.382 293.034C132.766 292.667 132.084 292.484 131.336 292.484C130.588 292.484 129.906 292.66 129.29 293.012C128.674 293.364 128.183 293.877 127.816 294.552C127.45 295.227 127.266 296.019 127.266 296.928C127.266 297.852 127.45 298.659 127.816 299.348C128.183 300.023 128.674 300.543 129.29 300.91C129.906 301.262 130.588 301.438 131.336 301.438C132.084 301.438 132.766 301.262 133.382 300.91C134.013 300.543 134.512 300.023 134.878 299.348C135.245 298.659 135.428 297.859 135.428 296.95ZM146.71 290.724C148.176 290.724 149.364 291.171 150.274 292.066C151.183 292.946 151.638 294.222 151.638 295.894V303H149.658V296.18C149.658 294.977 149.357 294.061 148.756 293.43C148.154 292.785 147.333 292.462 146.292 292.462C145.236 292.462 144.392 292.792 143.762 293.452C143.146 294.112 142.838 295.073 142.838 296.334V303H140.836V290.944H142.838V292.66C143.234 292.044 143.769 291.567 144.444 291.23C145.133 290.893 145.888 290.724 146.71 290.724ZM154.16 296.928C154.16 295.696 154.409 294.618 154.908 293.694C155.407 292.755 156.089 292.029 156.954 291.516C157.834 291.003 158.817 290.746 159.902 290.746C160.841 290.746 161.713 290.966 162.52 291.406C163.327 291.831 163.943 292.396 164.368 293.1V286.72H166.392V303H164.368V300.734C163.972 301.453 163.385 302.047 162.608 302.516C161.831 302.971 160.921 303.198 159.88 303.198C158.809 303.198 157.834 302.934 156.954 302.406C156.089 301.878 155.407 301.137 154.908 300.184C154.409 299.231 154.16 298.145 154.16 296.928ZM164.368 296.95C164.368 296.041 164.185 295.249 163.818 294.574C163.451 293.899 162.953 293.386 162.322 293.034C161.706 292.667 161.024 292.484 160.276 292.484C159.528 292.484 158.846 292.66 158.23 293.012C157.614 293.364 157.123 293.877 156.756 294.552C156.389 295.227 156.206 296.019 156.206 296.928C156.206 297.852 156.389 298.659 156.756 299.348C157.123 300.023 157.614 300.543 158.23 300.91C158.846 301.262 159.528 301.438 160.276 301.438C161.024 301.438 161.706 301.262 162.322 300.91C162.953 300.543 163.451 300.023 163.818 299.348C164.185 298.659 164.368 297.859 164.368 296.95ZM174.043 303.198C173.119 303.198 172.29 303.044 171.557 302.736C170.824 302.413 170.244 301.973 169.819 301.416C169.394 300.844 169.159 300.191 169.115 299.458H171.183C171.242 300.059 171.52 300.551 172.019 300.932C172.532 301.313 173.2 301.504 174.021 301.504C174.784 301.504 175.385 301.335 175.825 300.998C176.265 300.661 176.485 300.235 176.485 299.722C176.485 299.194 176.25 298.805 175.781 298.556C175.312 298.292 174.586 298.035 173.603 297.786C172.708 297.551 171.975 297.317 171.403 297.082C170.846 296.833 170.362 296.473 169.951 296.004C169.555 295.52 169.357 294.889 169.357 294.112C169.357 293.496 169.54 292.931 169.907 292.418C170.274 291.905 170.794 291.501 171.469 291.208C172.144 290.9 172.914 290.746 173.779 290.746C175.114 290.746 176.192 291.083 177.013 291.758C177.834 292.433 178.274 293.357 178.333 294.53H176.331C176.287 293.899 176.03 293.393 175.561 293.012C175.106 292.631 174.49 292.44 173.713 292.44C172.994 292.44 172.422 292.594 171.997 292.902C171.572 293.21 171.359 293.613 171.359 294.112C171.359 294.508 171.484 294.838 171.733 295.102C171.997 295.351 172.32 295.557 172.701 295.718C173.097 295.865 173.64 296.033 174.329 296.224C175.194 296.459 175.898 296.693 176.441 296.928C176.984 297.148 177.446 297.485 177.827 297.94C178.223 298.395 178.428 298.989 178.443 299.722C178.443 300.382 178.26 300.976 177.893 301.504C177.526 302.032 177.006 302.45 176.331 302.758C175.671 303.051 174.908 303.198 174.043 303.198Z" fill="black"/>
</svg>
