<svg width="24" height="24" viewBox="0 0 24 24" fill="none" xmlns="http://www.w3.org/2000/svg">
<circle cx="12" cy="12" r="11" fill="white" stroke="black" stroke-width="2"/>
<g clip-path="url(#clip0_5618_2243)">
<path d="M17.2966 9.08343C17.1958 8.90879 17.0515 8.76326 16.8777 8.66102C16.7039 8.55879 16.5066 8.50334 16.305 8.5001H8.83829L8.49996 7.18176C8.46578 7.0545 8.38951 6.94257 8.28359 6.86418C8.17766 6.7858 8.04832 6.74559 7.91663 6.7501H6.74996C6.59525 6.7501 6.44688 6.81156 6.33748 6.92095C6.22808 7.03035 6.16663 7.17872 6.16663 7.33343C6.16663 7.48814 6.22808 7.63651 6.33748 7.74591C6.44688 7.85531 6.59525 7.91676 6.74996 7.91676H7.47329L9.08329 13.9018C9.11748 14.029 9.19374 14.141 9.29966 14.2193C9.40559 14.2977 9.53493 14.3379 9.66663 14.3334H14.9166C15.0243 14.3331 15.1299 14.303 15.2215 14.2463C15.3132 14.1897 15.3873 14.1088 15.4358 14.0126L17.3491 10.1859C17.4321 10.0121 17.4707 9.82046 17.4615 9.62808C17.4523 9.4357 17.3957 9.24859 17.2966 9.08343ZM14.555 13.1668H10.11L9.15913 9.66676H16.305L14.555 13.1668Z" fill="black" stroke="black" stroke-width="0.5"/>
<path d="M9.375 17.25C9.85825 17.25 10.25 16.8582 10.25 16.375C10.25 15.8918 9.85825 15.5 9.375 15.5C8.89175 15.5 8.5 15.8918 8.5 16.375C8.5 16.8582 8.89175 17.25 9.375 17.25Z" fill="black" stroke="black" stroke-width="0.5"/>
<path d="M15.2084 17.25C15.6916 17.25 16.0834 16.8582 16.0834 16.375C16.0834 15.8918 15.6916 15.5 15.2084 15.5C14.7251 15.5 14.3334 15.8918 14.3334 16.375C14.3334 16.8582 14.7251 17.25 15.2084 17.25Z" fill="black" stroke="black" stroke-width="0.5"/>
</g>
<defs>
<clipPath id="clip0_5618_2243">
<rect width="14" height="14" fill="white" transform="translate(5 5)"/>
</clipPath>
</defs>
</svg>
