<svg width="150" height="190" viewBox="0 0 150 190" fill="none" xmlns="http://www.w3.org/2000/svg">
<rect width="150" height="190" rx="20" fill="#D9D9D9"/>
<path d="M47.366 133.666L41.58 149H39.27L33.484 133.666H35.618L40.436 146.888L45.254 133.666H47.366ZM50.5952 134.986C50.2139 134.986 49.8912 134.854 49.6272 134.59C49.3632 134.326 49.2312 134.003 49.2312 133.622C49.2312 133.241 49.3632 132.918 49.6272 132.654C49.8912 132.39 50.2139 132.258 50.5952 132.258C50.9619 132.258 51.2699 132.39 51.5192 132.654C51.7832 132.918 51.9152 133.241 51.9152 133.622C51.9152 134.003 51.7832 134.326 51.5192 134.59C51.2699 134.854 50.9619 134.986 50.5952 134.986ZM51.5632 136.944V149H49.5612V136.944H51.5632ZM65.9753 142.51C65.9753 142.891 65.9533 143.295 65.9093 143.72H56.2733C56.3466 144.908 56.7499 145.839 57.4833 146.514C58.2313 147.174 59.1333 147.504 60.1893 147.504C61.0546 147.504 61.7733 147.306 62.3453 146.91C62.9319 146.499 63.3426 145.957 63.5773 145.282H65.7333C65.4106 146.441 64.7653 147.387 63.7973 148.12C62.8293 148.839 61.6266 149.198 60.1893 149.198C59.0453 149.198 58.0186 148.941 57.1093 148.428C56.2146 147.915 55.5106 147.189 54.9973 146.25C54.4839 145.297 54.2273 144.197 54.2273 142.95C54.2273 141.703 54.4766 140.611 54.9753 139.672C55.4739 138.733 56.1706 138.015 57.0653 137.516C57.9746 137.003 59.0159 136.746 60.1893 136.746C61.3333 136.746 62.3453 136.995 63.2253 137.494C64.1053 137.993 64.7799 138.682 65.2493 139.562C65.7333 140.427 65.9753 141.41 65.9753 142.51ZM63.9073 142.092C63.9073 141.329 63.7386 140.677 63.4013 140.134C63.0639 139.577 62.6019 139.159 62.0153 138.88C61.4433 138.587 60.8053 138.44 60.1013 138.44C59.0893 138.44 58.2239 138.763 57.5053 139.408C56.8013 140.053 56.3979 140.948 56.2953 142.092H63.9073ZM84.6778 136.944L80.9158 149H78.8478L75.9438 139.43L73.0398 149H70.9718L67.1878 136.944H69.2338L72.0058 147.064L74.9978 136.944H77.0438L79.9698 147.086L82.6978 136.944H84.6778ZM101.594 145.59H94.9059L93.6739 149H91.5619L97.1059 133.754H99.4159L104.938 149H102.826L101.594 145.59ZM101.022 143.962L98.2499 136.218L95.4779 143.962H101.022ZM109.356 132.72V149H107.354V132.72H109.356ZM114.77 132.72V149H112.768V132.72H114.77Z" fill="#999999"/>
<path d="M101.667 53.0533V42.28C101.667 38.04 99.96 36.3333 95.72 36.3333H84.9467C80.7067 36.3333 79 38.04 79 42.28V53.0533C79 57.2933 80.7067 59 84.9467 59H95.72C99.96 59 101.667 57.2933 101.667 53.0533Z" stroke="#999999" stroke-width="3" stroke-linecap="round" stroke-linejoin="round"/>
<path d="M71 53.72V41.6133C71 37.8533 69.2934 36.3333 65.0534 36.3333H54.28C50.04 36.3333 48.3334 37.8533 48.3334 41.6133V53.6933C48.3334 57.48 50.04 58.9733 54.28 58.9733H65.0534C69.2934 59 71 57.48 71 53.72Z" stroke="#999999" stroke-width="3" stroke-linecap="round" stroke-linejoin="round"/>
<path d="M71 83.72V72.9467C71 68.7067 69.2934 67 65.0534 67H54.28C50.04 67 48.3334 68.7067 48.3334 72.9467V83.72C48.3334 87.96 50.04 89.6667 54.28 89.6667H65.0534C69.2934 89.6667 71 87.96 71 83.72Z" stroke="#999999" stroke-width="3" stroke-linecap="round" stroke-linejoin="round"/>
<path d="M81.6666 77.6667H97.6666" stroke="#999999" stroke-width="3" stroke-linecap="round"/>
<path d="M89.6666 85.6667V69.6667" stroke="#999999" stroke-width="3" stroke-linecap="round"/>
</svg>
